<svg width="26" height="26" viewBox="0 0 26 26" fill="none" xmlns="http://www.w3.org/2000/svg">
<path d="M1.1547 0.684038C0.788663 0.89946 0.498265 1.15534 0.300127 1.43703C0.101989 1.71872 1.76655e-07 2.0207 2.03316e-07 2.32566C2.29977e-07 2.63063 0.101989 2.9326 0.300127 3.21429C0.498266 3.49598 0.788663 3.75186 1.1547 3.96728L16.4746 13.002L1.1547 22.0368C0.41643 22.4722 0.00167391 23.0627 0.00167396 23.6784C0.00167402 24.2941 0.41643 24.8846 1.1547 25.32C1.89297 25.7554 2.89428 26 3.93835 26C4.98242 26 5.98372 25.7554 6.72199 25.32L24.8453 14.632C25.2113 14.4166 25.5017 14.1607 25.6999 13.879C25.898 13.5973 26 13.2954 26 12.9904C26 12.6854 25.898 12.3834 25.6999 12.1018C25.5017 11.8201 25.2113 11.5642 24.8453 11.3488L6.72199 0.660752C5.22158 -0.224095 2.69459 -0.224094 1.1547 0.684038Z" fill="#030202"/>
</svg>
