<svg width="26" height="26" viewBox="0 0 26 26" fill="none" xmlns="http://www.w3.org/2000/svg">
<path d="M24.8453 25.316C25.2113 25.1005 25.5017 24.8447 25.6999 24.563C25.898 24.2813 26 23.9793 26 23.6743C26 23.3694 25.898 23.0674 25.6999 22.7857C25.5017 22.504 25.2113 22.2481 24.8453 22.0327L9.52538 12.998L24.8453 3.96322C25.5836 3.52784 25.9983 2.93733 25.9983 2.3216C25.9983 1.70587 25.5836 1.11536 24.8453 0.679976C24.107 0.24459 23.1057 -2.62071e-06 22.0617 -2.52943e-06C21.0176 -2.43815e-06 20.0163 0.244591 19.278 0.679976L1.15469 11.368C0.78866 11.5834 0.498263 11.8393 0.300124 12.121C0.101986 12.4027 1.23483e-06 12.7046 1.26149e-06 13.0096C1.28816e-06 13.3146 0.101986 13.6166 0.300125 13.8982C0.498263 14.1799 0.788661 14.4358 1.15469 14.6512L19.278 25.3392C20.7784 26.2241 23.3054 26.2241 24.8453 25.316Z" fill="#030202"/>
</svg>
